<?xml version="1.0" encoding="UTF-8"?>
<svg id="Layer_1" data-name="Layer 1" xmlns="http://www.w3.org/2000/svg" viewBox="0 0 1100 200">
  <defs>
    <style>
      .cls-1 {
        fill: #231f20;
      }
    </style>
  </defs>
  <g>
    <path class="cls-1" d="M384.14,40.69c13.5,0,22.86,1.44,31.68,9.18,9.72,8.64,12.24,20.34,12.24,28.98,0,4.68-.72,17.64-9.9,26.82-6.66,6.66-16.56,10.62-30.42,10.62h-15.12v44.46h-23.4V40.69h34.92ZM372.62,96.13h9.54c4.5,0,10.26,0,15.3-3.78,4.32-3.42,6.48-8.82,6.48-14.04,0-6.66-3.24-11.16-6.66-13.68-4.86-3.42-10.98-3.78-16.56-3.78h-8.1v35.28Z"/>
    <path class="cls-1" d="M499.16,82.81h21.96v77.94h-21.96v-10.08c-7.92,11.34-18.36,12.6-23.94,12.6-23.94,0-39.78-18.72-39.78-41.58s15.66-41.4,38.7-41.4c5.94,0,17.64,1.08,25.02,12.6v-10.08ZM458.12,121.69c0,12.42,9,22.14,21.6,22.14s21.6-9.72,21.6-22.14-9-21.96-21.6-21.96-21.6,9.54-21.6,21.96Z"/>
    <path class="cls-1" d="M541.1,82.81h21.96v11.7c3.42-6.66,8.1-9.9,9.72-10.8,3.42-2.16,7.74-3.42,12.96-3.42,3.78,0,6.84.9,9.36,1.8l-2.88,20.52c-2.88-1.98-5.76-2.88-10.26-2.88-4.14,0-10.26.9-14.58,6.3-4.14,5.22-4.32,11.88-4.32,17.28v37.44h-21.96v-77.94Z"/>
    <path class="cls-1" d="M645.5,101.35c-5.22-4.86-10.44-5.22-12.78-5.22-5.22,0-8.46,2.52-8.46,6.3,0,1.98.9,5.04,7.02,7.02l5.22,1.62c6.12,1.98,15.3,5.04,19.8,11.16,2.34,3.24,3.96,7.92,3.96,12.96,0,7.02-2.34,14.04-8.64,19.8-6.3,5.76-13.86,8.28-23.4,8.28-16.2,0-25.38-7.74-30.24-12.96l11.52-13.32c4.32,5.04,10.8,9,17.28,9,6.12,0,10.8-3.06,10.8-8.46,0-4.86-3.96-6.84-6.84-7.92l-5.04-1.8c-5.58-1.98-12.06-4.5-16.74-9.36-3.6-3.78-5.94-8.64-5.94-14.94,0-7.56,3.6-13.86,8.1-17.64,6.12-4.86,14.04-5.58,20.34-5.58,5.76,0,14.94.72,24.84,8.28l-10.8,12.78Z"/>
    <path class="cls-1" d="M751.33,138.97c-2.34,5.76-11.16,24.3-38.34,24.3-12.6,0-22.14-3.6-29.88-10.98-8.64-8.1-12.24-18.18-12.24-30.42,0-15.48,6.3-25.02,11.88-30.6,9.18-9,19.98-10.98,29.34-10.98,15.84,0,25.02,6.3,30.42,12.78,8.28,9.9,9.36,22.14,9.36,30.6v1.8h-58.32c0,4.68,1.26,9.72,3.78,13.14,2.34,3.24,7.2,7.38,15.66,7.38s14.58-3.96,18.18-10.26l20.16,3.24ZM731.17,111.43c-1.8-10.62-10.44-15.66-18.54-15.66s-16.56,5.22-18.36,15.66h36.9Z"/>
    <path class="cls-1" d="M806.41,160.75h-10.8l-39.6-77.94h24.48l20.52,45,20.88-45h10.08l20.88,45,20.52-45h24.48l-39.6,77.94h-10.8l-20.52-45.9-20.52,45.9Z"/>
    <path class="cls-1" d="M918.73,36.73c7.2,0,13.14,5.94,13.14,13.14s-5.94,13.14-13.14,13.14-13.14-5.94-13.14-13.14,5.94-13.14,13.14-13.14ZM929.71,82.81v77.94h-21.96v-77.94h21.96Z"/>
    <path class="cls-1" d="M992.17,101.35c-5.22-4.86-10.44-5.22-12.78-5.22-5.22,0-8.46,2.52-8.46,6.3,0,1.98.9,5.04,7.02,7.02l5.22,1.62c6.12,1.98,15.3,5.04,19.8,11.16,2.34,3.24,3.96,7.92,3.96,12.96,0,7.02-2.34,14.04-8.64,19.8-6.3,5.76-13.86,8.28-23.4,8.28-16.2,0-25.38-7.74-30.24-12.96l11.52-13.32c4.32,5.04,10.8,9,17.28,9,6.12,0,10.8-3.06,10.8-8.46,0-4.86-3.96-6.84-6.84-7.92l-5.04-1.8c-5.58-1.98-12.06-4.5-16.74-9.36-3.6-3.78-5.94-8.64-5.94-14.94,0-7.56,3.6-13.86,8.1-17.64,6.12-4.86,14.04-5.58,20.34-5.58,5.76,0,14.94.72,24.84,8.28l-10.8,12.78Z"/>
    <path class="cls-1" d="M1098.01,138.97c-2.34,5.76-11.16,24.3-38.34,24.3-12.6,0-22.14-3.6-29.88-10.98-8.64-8.1-12.24-18.18-12.24-30.42,0-15.48,6.3-25.02,11.88-30.6,9.18-9,19.98-10.98,29.34-10.98,15.84,0,25.02,6.3,30.42,12.78,8.28,9.9,9.36,22.14,9.36,30.6v1.8h-58.32c0,4.68,1.26,9.72,3.78,13.14,2.34,3.24,7.2,7.38,15.66,7.38s14.58-3.96,18.18-10.26l20.16,3.24ZM1077.85,111.43c-1.8-10.62-10.44-15.66-18.54-15.66s-16.56,5.22-18.36,15.66h36.9Z"/>
  </g>
  <g>
    <polygon class="cls-1" points="149.53 41.15 84.78 3.78 84.78 3.77 1.45 51.89 64.66 88.38 84.78 77.18 84.78 77.18 149.53 41.15"/>
    <polygon class="cls-1" points="84.78 100 84.78 100 84.78 100 84.78 100"/>
    <polygon class="cls-1" points="84.78 100 84.78 100 84.78 100 84.78 100"/>
    <polygon class="cls-1" points="84.78 100 84.78 100 21.29 136.66 84.78 100"/>
    <polygon class="cls-1" points="84.78 196.22 251.45 100 168.12 51.89 84.78 100 84.78 100 21.29 136.66 1.45 148.11 84.78 196.22 84.78 196.23 84.78 196.22 84.78 196.23 84.78 196.22"/>
    <rect class="cls-1" x="-4.99" y="124.06" width="96.22" height="0" transform="translate(-56.25 38.18) rotate(-30)"/>
    <polygon class="cls-1" points="84.78 100 84.78 100 22.71 135.84 84.78 100"/>
  </g>
</svg>